HIERARCHY
ROOT hip
{
  OFFSET 19.6706 83.1051 -22.4837
  CHANNELS 6 Xposition Yposition Zposition Zrotation Xrotation Yrotation
  JOINT abdomen
  {
    OFFSET 0 20.6881 -0.73152
    CHANNELS 3 Zrotation Xrotation Yrotation
    JOINT chest
    {
      OFFSET 0 11.7043 -0.48768
      CHANNELS 3 Zrotation Xrotation Yrotation
      JOINT neck
      {
        OFFSET 0 22.1894 -2.19456
        CHANNELS 3 Zrotation Xrotation Yrotation
        JOINT head
        {
          OFFSET -0.24384 7.07133 1.2192
          CHANNELS 3 Zrotation Xrotation Yrotation
          JOINT leftEye
          {
            OFFSET 4.14528 8.04674 8.04672
            CHANNELS 3 Zrotation Xrotation Yrotation
            End Site
            {
              OFFSET 1 0 0
            }
          }
          JOINT rightEye
          {
            OFFSET -3.6576 8.04674 8.04672
            CHANNELS 3 Zrotation Xrotation Yrotation
            End Site
            {
              OFFSET 1 0 0
            }
          }
        }
      }
      JOINT rCollar
      {
        OFFSET -2.68224 19.2634 -4.8768
        CHANNELS 3 Zrotation Xrotation Yrotation
        JOINT rShldr
        {
          OFFSET -8.77824 -1.95073 1.46304
          CHANNELS 3 Zrotation Xrotation Yrotation
          JOINT rForeArm
          {
            OFFSET -28.1742 -1.7115 0.48768
            CHANNELS 3 Zrotation Xrotation Yrotation
            JOINT rHand
            {
              OFFSET -22.5879 0.773209 7.07136
              CHANNELS 3 Zrotation Xrotation Yrotation
              JOINT rThumb1
              {
                OFFSET -1.2192 -0.487915 3.41376
                CHANNELS 3 Zrotation Xrotation Yrotation
                JOINT rThumb2
                {
                  OFFSET -3.37035 -0.52449 3.41376
                  CHANNELS 3 Zrotation Xrotation Yrotation
                  End Site
                  {
                    OFFSET -1.78271 -1.18214 1.43049
                  }
                }
              }
              JOINT rIndex1
              {
                OFFSET -7.75947 0.938293 5.60832
                CHANNELS 3 Zrotation Xrotation Yrotation
                JOINT rIndex2
                {
                  OFFSET -2.54057 -0.884171 1.56538
                  CHANNELS 3 Zrotation Xrotation Yrotation
                  End Site
                  {
                    OFFSET -1.62519 -0.234802 1.16502
                  }
                }
              }
              JOINT rMid1
              {
                OFFSET -8.24714 1.18213 3.41376
                CHANNELS 3 Zrotation Xrotation Yrotation
                JOINT rMid2
                {
                  OFFSET -3.10165 -0.590103 1.0647
                  CHANNELS 3 Zrotation Xrotation Yrotation
                  End Site
                  {
                    OFFSET -2.48547 -0.328903 0.83742
                  }
                }
              }
              JOINT rRing1
              {
                OFFSET -8.82822 0.546677 1.51678
                CHANNELS 3 Zrotation Xrotation Yrotation
                JOINT rRing2
                {
                  OFFSET -2.60934 -0.819778 -0.0198488
                  CHANNELS 3 Zrotation Xrotation Yrotation
                  End Site
                  {
                    OFFSET -2.33842 -0.294052 0.168128
                  }
                }
              }
              JOINT rPinky1
              {
                OFFSET -8.27202 -0.0477905 -0.4584
                CHANNELS 3 Zrotation Xrotation Yrotation
                JOINT rPinky2
                {
                  OFFSET -1.82734 -0.647385 -0.700984
                  CHANNELS 3 Zrotation Xrotation Yrotation
                  End Site
                  {
                    OFFSET -1.69225 -0.51767 -0.607171
                  }
                }
              }
            }
          }
        }
      }
      JOINT lCollar
      {
        OFFSET 2.68224 19.2634 -4.8768
        CHANNELS 3 Zrotation Xrotation Yrotation
        JOINT lShldr
        {
          OFFSET 8.77824 -1.95073 1.46304
          CHANNELS 3 Zrotation Xrotation Yrotation
          JOINT lForeArm
          {
            OFFSET 28.1742 -1.7115 0.48768
            CHANNELS 3 Zrotation Xrotation Yrotation
            JOINT lHand
            {
              OFFSET 22.5879 0.773209 7.07136
              CHANNELS 3 Zrotation Xrotation Yrotation
              JOINT lThumb1
              {
                OFFSET 1.2192 -0.487915 3.41376
                CHANNELS 3 Zrotation Xrotation Yrotation
                JOINT lThumb2
                {
                  OFFSET 3.37035 -0.52449 3.41376
                  CHANNELS 3 Zrotation Xrotation Yrotation
                  End Site
                  {
                    OFFSET 1.78271 -1.18214 1.43049
                  }
                }
              }
              JOINT lIndex1
              {
                OFFSET 7.75947 0.938293 5.60832
                CHANNELS 3 Zrotation Xrotation Yrotation
                JOINT lIndex2
                {
                  OFFSET 2.54057 -0.884171 1.56538
                  CHANNELS 3 Zrotation Xrotation Yrotation
                  End Site
                  {
                    OFFSET 1.62519 -0.234802 1.16502
                  }
                }
              }
              JOINT lMid1
              {
                OFFSET 8.24714 1.18213 3.41376
                CHANNELS 3 Zrotation Xrotation Yrotation
                JOINT lMid2
                {
                  OFFSET 3.10165 -0.590103 1.0647
                  CHANNELS 3 Zrotation Xrotation Yrotation
                  End Site
                  {
                    OFFSET 2.48547 -0.328903 0.83742
                  }
                }
              }
              JOINT lRing1
              {
                OFFSET 8.82822 0.546677 1.51678
                CHANNELS 3 Zrotation Xrotation Yrotation
                JOINT lRing2
                {
                  OFFSET 2.60934 -0.819778 -0.0198488
                  CHANNELS 3 Zrotation Xrotation Yrotation
                  End Site
                  {
                    OFFSET 2.33842 -0.294052 0.168128
                  }
                }
              }
              JOINT lPinky1
              {
                OFFSET 8.27202 -0.0477905 -0.4584
                CHANNELS 3 Zrotation Xrotation Yrotation
                JOINT lPinky2
                {
                  OFFSET 1.82734 -0.647385 -0.700984
                  CHANNELS 3 Zrotation Xrotation Yrotation
                  End Site
                  {
                    OFFSET 1.69225 -0.51767 -0.607171
                  }
                }
              }
            }
          }
        }
      }
    }
  }
  JOINT rButtock
  {
    OFFSET -8.77824 4.35084 1.2192
    CHANNELS 3 Zrotation Xrotation Yrotation
    JOINT rThigh
    {
      OFFSET 0 -1.70687 -2.19456
      CHANNELS 3 Zrotation Xrotation Yrotation
      JOINT rShin
      {
        OFFSET 0 -36.8199 0.73152
        CHANNELS 3 Zrotation Xrotation Yrotation
        JOINT rFoot
        {
          OFFSET 0.73152 -45.1104 -5.12064
          CHANNELS 3 Zrotation Xrotation Yrotation
          End Site
          {
            OFFSET -1.1221 -3.69964 12.103
          }
        }
      }
    }
  }
  JOINT lButtock
  {
    OFFSET 8.77824 4.35084 1.2192
    CHANNELS 3 Zrotation Xrotation Yrotation
    JOINT lThigh
    {
      OFFSET 0 -1.70687 -2.19456
      CHANNELS 3 Zrotation Xrotation Yrotation
      JOINT lShin
      {
        OFFSET 0 -36.8199 0.73152
        CHANNELS 3 Zrotation Xrotation Yrotation
        JOINT lFoot
        {
          OFFSET -0.73152 -45.1104 -5.12064
          CHANNELS 3 Zrotation Xrotation Yrotation
          End Site
          {
            OFFSET 1.1221 -3.69964 12.103
          }
        }
      }
    }
  }
}
MOTION
Frames:	4
Frame Time:	0.00833333
178.085 85.1237 4.09187 -0.33052 -0.0106498 0.00540079 0.435977 -0.0238512 0.0128203 0.121276 -0.0396247 0.0210496 -1.14168e-014 -1.59028e-015 -4.34841e-017 -3.41785e-014 3.18055e-015 -1.30452e-016 -0 0 0 -0 0 0 -5.71636e-015 3.76604e-017 1.49089e-016 -1.16971e-013 1.2424e-015 -3.97569e-016 -2.05981e-012 6.58574e-013 1.90833e-014 -2.36285e-011 -4.13944e-013 -1.55847e-013 -5.57246e-011 5.2817e-013 -2.8943e-013 -9.62356e-011 9.12819e-013 -5.07298e-013 -5.57181e-011 5.30755e-013 -2.98972e-013 7.73091 5.47488 0.417314 -5.57228e-011 5.29065e-013 -2.92611e-013 2.90554 0.965183 0.102902 -5.5712e-011 5.28767e-013 -2.94201e-013 10.2786 0.731801 0.0259123 -5.57237e-011 5.26382e-013 -2.95792e-013 2.22167 -0.733487 -0.20892 -5.71414e-015 3.72721e-017 -1.49089e-016 -1.22436e-013 1.34801e-015 -1.78906e-015 -2.0692e-012 -5.75879e-013 -1.90833e-014 -2.36142e-011 8.26174e-013 -1.20861e-013 -5.57127e-011 5.40023e-013 -2.8943e-013 -9.62098e-011 9.31903e-013 -4.95371e-013 -5.57205e-011 5.45068e-013 -2.83069e-013 -7.73091 5.47488 -0.417314 -5.57153e-011 5.40694e-013 -2.95792e-013 -2.90554 0.965183 -0.102902 -5.57203e-011 5.40595e-013 -2.91021e-013 -10.2786 0.731801 -0.0259123 -5.57146e-011 5.38309e-013 -2.95792e-013 -2.22167 -0.733487 0.20892 -2.03217e-016 0 -3.88251e-019 0.651853 -4.71111 -0.0694717 -0.000843155 2.99809 0.00382714 -0.326243 1.72323 0.06977 2.03217e-016 0 3.88251e-019 0.0330132 -2.68024 0.023163 0.00579589 -0.679773 0.0505502 0.29629 3.37021 -0.0966985 
170.033 81.9698 -9.5864 -10.0441 18.3874 -21.9116 5.04263 -0.705037 0.696541 0.912342 -4.0033 0.243419 -2.91738 0.0789176 -2.8318 1.74254 4.07073 -5.4444 -0 0 0 -0 0 0 1.09386e-013 1.26147e-012 -7.09762e-014 17.3464 11.8687 -4.31059 -5.84617 -3.0873 8.61461 0.0453768 -4.72873 -0.656434 -5.33798e-011 -4.18793e-011 -8.69308e-010 -8.42644e-011 -6.98259e-011 -1.50484e-009 -5.33747e-011 -4.1878e-011 -8.69316e-010 7.73091 5.47488 0.417314 -5.33806e-011 -4.18791e-011 -8.69306e-010 2.90554 0.965183 0.102902 -5.33703e-011 -4.18779e-011 -8.69311e-010 10.2786 0.731801 0.0259123 -5.33795e-011 -4.18786e-011 -8.6931e-010 2.22167 -0.733487 -0.20892 1.09387e-013 1.26148e-012 -7.12484e-014 -22.5867 5.65659 3.36401 5.00955 -2.4592 -7.61564 -0.0116186 2.39139 -0.335031 -1.20869e-009 -9.23113e-011 4.37219e-010 -2.08474e-009 -1.5198e-010 7.67182e-010 -1.2087e-009 -9.23078e-011 4.37224e-010 -7.73091 5.47488 -0.417314 -1.20869e-009 -9.23109e-011 4.37215e-010 -2.90554 0.965183 -0.102902 -1.2087e-009 -9.23101e-011 4.37219e-010 -10.2786 0.731801 -0.0259123 -1.20869e-009 -9.23119e-011 4.37213e-010 -2.22167 -0.733487 0.20892 -2.03217e-016 0 -3.88251e-019 8.5345 -7.83829 3.90972 0.013475 6.365 0.0801993 -0.413801 -6.7235 -6.8441 2.03217e-016 0 3.88251e-019 7.47566 -4.91166 -4.99721 -0.0416936 -0.492545 -0.368141 2.41445 -13.6474 6.86513 
170.04 81.9527 -9.59837 -5.06772 28.5531 -50.5011 9.92823 -1.42145 1.41931 1.78196 -8.19601 0.482242 -5.99509 0.158018 -5.82416 4.42722 8.25931 -11.2868 -0 0 0 -0 0 0 2.39312e-013 2.70302e-012 -1.53207e-013 37.7869 24.1878 -9.52034 -11.0292 -6.1191 17.8017 -0.0259872 -9.71685 -1.36419 -5.19018e-011 -9.60916e-011 -1.85319e-009 -7.27958e-011 -1.60687e-010 -3.20797e-009 -5.18982e-011 -9.60916e-011 -1.8532e-009 7.73091 5.47488 0.417314 -5.19053e-011 -9.6092e-011 -1.85318e-009 2.90554 0.965183 0.102902 -5.18956e-011 -9.60893e-011 -1.85319e-009 10.2786 0.731801 0.0259123 -5.19021e-011 -9.60881e-011 -1.85319e-009 2.22167 -0.733487 -0.20892 2.39312e-013 2.70304e-012 -1.53452e-013 -47.1994 11.5663 7.03005 9.60161 -4.91449 -15.7118 0.00661472 4.92075 -0.691376 -2.517e-009 -2.01766e-010 9.35273e-010 -4.34115e-009 -3.32612e-010 1.64101e-009 -2.517e-009 -2.01764e-010 9.35277e-010 -7.73091 5.47488 -0.417314 -2.517e-009 -2.01766e-010 9.35272e-010 -2.90554 0.965183 -0.102902 -2.517e-009 -2.01764e-010 9.35275e-010 -10.2786 0.731801 -0.0259123 -2.51699e-009 -2.01766e-010 9.35267e-010 -2.22167 -0.733487 0.20892 -2.03217e-016 0 -3.88251e-019 17.3436 -11.0705 8.1956 0.0186698 9.92651 0.162371 -2.77375 -15.2736 -14.5796 2.03217e-016 0 3.88251e-019 14.913 -7.19289 -10.3493 -0.0888758 -0.294716 -0.810646 9.74963 -30.8078 16.1524 
170.016 81.9478 -9.61664 4.82262 23.5805 -74.8926 14.3047 -2.06622 2.06517 2.58854 -11.9299 0.701529 -8.72882 0.234441 -8.49548 7.5553 11.7676 -16.6517 -0 0 0 -0 0 0 3.39591e-013 3.78435e-012 -2.13227e-013 58.3224 34.7101 -15.4563 -14.8334 -8.42601 26.1087 -0.197552 -14.1786 -2.02429 -4.86903e-011 -1.26694e-010 -2.60735e-009 -6.0322e-011 -2.11303e-010 -4.5135e-009 -4.86879e-011 -1.26695e-010 -2.60735e-009 7.73091 5.47488 0.417314 -4.86961e-011 -1.26695e-010 -2.60733e-009 2.90554 0.965183 0.102902 -4.8687e-011 -1.26691e-010 -2.60735e-009 10.2786 0.731801 0.0259123 -4.86912e-011 -1.26688e-010 -2.60734e-009 2.22167 -0.733487 -0.20892 3.39589e-013 3.78438e-012 -2.13447e-013 -69.8158 16.7307 10.4917 13.1135 -6.85737 -22.9996 0.0496032 7.17318 -1.01214 -3.51465e-009 -2.78014e-010 1.31224e-009 -6.06181e-009 -4.57804e-010 2.30254e-009 -3.51465e-009 -2.78014e-010 1.31224e-009 -7.73091 5.47488 -0.417314 -3.51465e-009 -2.78014e-010 1.31224e-009 -2.90554 0.965183 -0.102902 -3.51465e-009 -2.78012e-010 1.31224e-009 -10.2786 0.731801 -0.0259123 -3.51464e-009 -2.78012e-010 1.31223e-009 -2.22167 -0.733487 0.20892 -2.03217e-016 0 -3.88251e-019 25.6266 -13.844 12.1149 0.0145241 13.0987 0.237655 -6.95426 -22.168 -22.2524 2.03217e-016 0 3.88251e-019 21.1912 -9.10706 -15.1786 -0.128464 -0.118093 -1.20548 22.7438 -44.1912 28.7948 
